<svg xmlns="http://www.w3.org/2000/svg" width="25" height="24" viewBox="0 0 25 24" fill="none">
  <path d="M19.8334 7H16.8334V6C16.8334 4.93913 16.4119 3.92172 15.6618 3.17157C14.9117 2.42143 13.8942 2 12.8334 2C11.7725 2 10.7551 2.42143 10.0049 3.17157C9.2548 3.92172 8.83337 4.93913 8.83337 6V7H5.83337C5.56816 7 5.3138 7.10536 5.12627 7.29289C4.93873 7.48043 4.83337 7.73478 4.83337 8V19C4.83337 19.7956 5.14944 20.5587 5.71205 21.1213C6.27466 21.6839 7.03772 22 7.83337 22H17.8334C18.629 22 19.3921 21.6839 19.9547 21.1213C20.5173 20.5587 20.8334 19.7956 20.8334 19V8C20.8334 7.73478 20.728 7.48043 20.5405 7.29289C20.3529 7.10536 20.0986 7 19.8334 7ZM10.8334 6C10.8334 5.46957 11.0441 4.96086 11.4192 4.58579C11.7942 4.21071 12.3029 4 12.8334 4C13.3638 4 13.8725 4.21071 14.2476 4.58579C14.6227 4.96086 14.8334 5.46957 14.8334 6V7H10.8334V6ZM18.8334 19C18.8334 19.2652 18.728 19.5196 18.5405 19.7071C18.3529 19.8946 18.0986 20 17.8334 20H7.83337C7.56816 20 7.3138 19.8946 7.12627 19.7071C6.93873 19.5196 6.83337 19.2652 6.83337 19V9H8.83337V10C8.83337 10.2652 8.93873 10.5196 9.12627 10.7071C9.3138 10.8946 9.56816 11 9.83337 11C10.0986 11 10.3529 10.8946 10.5405 10.7071C10.728 10.5196 10.8334 10.2652 10.8334 10V9H14.8334V10C14.8334 10.2652 14.9387 10.5196 15.1263 10.7071C15.3138 10.8946 15.5682 11 15.8334 11C16.0986 11 16.3529 10.8946 16.5405 10.7071C16.728 10.5196 16.8334 10.2652 16.8334 10V9H18.8334V19Z" fill="#34A853"/>
</svg>