<svg xmlns="http://www.w3.org/2000/svg" width="22" height="22" viewBox="0 0 22 22" fill="none">
  <path d="M11 1.83337C9.22207 1.83675 7.48352 2.35708 5.99609 3.33097C4.50866 4.30486 3.33653 5.69029 2.62249 7.31849C1.90845 8.9467 1.68331 10.7474 1.97449 12.5013C2.26567 14.2552 3.0606 15.8866 4.26246 17.1967C5.12085 18.1272 6.16266 18.8697 7.32224 19.3776C8.48182 19.8855 9.73403 20.1478 11 20.1478C12.2659 20.1478 13.5181 19.8855 14.6777 19.3776C15.8373 18.8697 16.8791 18.1272 17.7375 17.1967C18.9393 15.8866 19.7343 14.2552 20.0254 12.5013C20.3166 10.7474 20.0915 8.9467 19.3774 7.31849C18.6634 5.69029 17.4913 4.30486 16.0038 3.33097C14.5164 2.35708 12.7779 1.83675 11 1.83337ZM11 18.3334C9.10106 18.3305 7.2773 17.5911 5.91246 16.2709C6.32684 15.2621 7.03174 14.3993 7.93761 13.7921C8.84348 13.1849 9.90941 12.8607 11 12.8607C12.0905 12.8607 13.1564 13.1849 14.0623 13.7921C14.9682 14.3993 15.6731 15.2621 16.0875 16.2709C14.7226 17.5911 12.8989 18.3305 11 18.3334ZM9.16663 9.16671C9.16663 8.80411 9.27415 8.44965 9.4756 8.14816C9.67705 7.84667 9.96338 7.61169 10.2984 7.47293C10.6334 7.33417 11.002 7.29786 11.3576 7.3686C11.7133 7.43934 12.0399 7.61395 12.2963 7.87034C12.5527 8.12674 12.7273 8.45341 12.7981 8.80904C12.8688 9.16467 12.8325 9.53329 12.6937 9.86829C12.555 10.2033 12.32 10.4896 12.0185 10.6911C11.717 10.8925 11.3626 11 11 11C10.5137 11 10.0474 10.8069 9.7036 10.4631C9.35979 10.1193 9.16663 9.65294 9.16663 9.16671ZM17.3341 14.6667C16.5151 13.2658 15.2546 12.1761 13.75 11.5684C14.2167 11.0391 14.5208 10.3865 14.6258 9.68869C14.7308 8.99091 14.6322 8.27764 14.3419 7.6345C14.0516 6.99135 13.5818 6.44564 12.989 6.06284C12.3963 5.68005 11.7056 5.47644 11 5.47644C10.2943 5.47644 9.60367 5.68005 9.01088 6.06284C8.41809 6.44564 7.94835 6.99135 7.65803 7.6345C7.3677 8.27764 7.26912 8.99091 7.37412 9.68869C7.47911 10.3865 7.78323 11.0391 8.24996 11.5684C6.74535 12.1761 5.48481 13.2658 4.6658 14.6667C4.01308 13.5549 3.66821 12.2893 3.66663 11C3.66663 9.05512 4.43925 7.18986 5.81451 5.81459C7.18978 4.43932 9.05504 3.66671 11 3.66671C12.9449 3.66671 14.8101 4.43932 16.1854 5.81459C17.5607 7.18986 18.3333 9.05512 18.3333 11C18.3317 12.2893 17.9869 13.5549 17.3341 14.6667Z" fill="#606F5C"/>
</svg>