<svg xmlns="http://www.w3.org/2000/svg" width="22" height="22" viewBox="0 0 22 22" fill="none">
  <path d="M19.3141 15.4275L17.4166 13.4842C17.0085 13.0962 16.4936 12.8391 15.9382 12.746C15.3829 12.6529 14.8123 12.728 14.3 12.9617L13.4749 12.1367C14.4471 10.8377 14.8911 9.21863 14.7175 7.60544C14.544 5.99225 13.7657 4.50471 12.5394 3.44227C11.3132 2.37983 9.72994 1.82138 8.10848 1.87934C6.48701 1.9373 4.9477 2.60737 3.80042 3.75465C2.65314 4.90193 1.98308 6.44124 1.92512 8.0627C1.86716 9.68416 2.42561 11.2674 3.48805 12.4937C4.55049 13.7199 6.03803 14.4982 7.65122 14.6718C9.2644 14.8453 10.8835 14.4013 12.1825 13.4292L12.9983 14.245C12.7371 14.758 12.6435 15.34 12.7307 15.909C12.8178 16.4781 13.0814 17.0054 13.4841 17.4167L15.4275 19.36C15.9431 19.875 16.642 20.1643 17.3708 20.1643C18.0995 20.1643 18.7985 19.875 19.3141 19.36C19.576 19.1039 19.7842 18.798 19.9262 18.4604C20.0683 18.1227 20.1415 17.7601 20.1415 17.3938C20.1415 17.0274 20.0683 16.6648 19.9262 16.3271C19.7842 15.9895 19.576 15.6836 19.3141 15.4275ZM11.5408 11.5408C10.8993 12.1807 10.0826 12.616 9.19388 12.792C8.30512 12.9679 7.38415 12.8764 6.54734 12.5292C5.71052 12.1819 4.99538 11.5945 4.49227 10.841C3.98916 10.0875 3.72064 9.20184 3.72064 8.29584C3.72064 7.38984 3.98916 6.50416 4.49227 5.75068C4.99538 4.99721 5.71052 4.40974 6.54734 4.0625C7.38415 3.71526 8.30512 3.62382 9.19388 3.79973C10.0826 3.97564 10.8993 4.41101 11.5408 5.05084C11.9676 5.47659 12.3063 5.98237 12.5373 6.5392C12.7684 7.09603 12.8873 7.69297 12.8873 8.29584C12.8873 8.89871 12.7684 9.49565 12.5373 10.0525C12.3063 10.6093 11.9676 11.1151 11.5408 11.5408ZM18.0216 18.0217C17.9364 18.1076 17.835 18.1758 17.7233 18.2223C17.6116 18.2689 17.4918 18.2928 17.3708 18.2928C17.2498 18.2928 17.13 18.2689 17.0183 18.2223C16.9066 18.1758 16.8052 18.1076 16.7199 18.0217L14.7766 16.0783C14.6907 15.9931 14.6225 15.8917 14.576 15.78C14.5294 15.6683 14.5055 15.5485 14.5055 15.4275C14.5055 15.3065 14.5294 15.1867 14.576 15.075C14.6225 14.9633 14.6907 14.8619 14.7766 14.7767C14.8618 14.6908 14.9632 14.6226 15.0749 14.576C15.1866 14.5295 15.3064 14.5055 15.4275 14.5055C15.5485 14.5055 15.6683 14.5295 15.78 14.576C15.8917 14.6226 15.9931 14.6908 16.0783 14.7767L18.0216 16.72C18.1075 16.8052 18.1757 16.9066 18.2223 17.0183C18.2688 17.13 18.2928 17.2498 18.2928 17.3708C18.2928 17.4919 18.2688 17.6117 18.2223 17.7234C18.1757 17.8351 18.1075 17.9365 18.0216 18.0217Z" fill="#606F5C"/>
</svg>