<svg xmlns="http://www.w3.org/2000/svg" width="9" height="10" viewBox="0 0 9 10" fill="none">
  <g clip-path="url(#clip0_1_3467)">
    <path d="M2.77549 2.61228C2.6654 2.61228 2.55778 2.64492 2.46624 2.70609C2.3747 2.76725 2.30336 2.85418 2.26123 2.95589C2.2191 3.0576 2.20808 3.16952 2.22956 3.2775C2.25103 3.38547 2.30405 3.48465 2.38189 3.5625C2.45974 3.64035 2.55892 3.69336 2.66689 3.71484C2.77487 3.73632 2.88679 3.72529 2.9885 3.68316C3.09021 3.64103 3.17714 3.56969 3.23831 3.47815C3.29947 3.38661 3.33212 3.279 3.33212 3.16891C3.33212 3.02128 3.27347 2.8797 3.16908 2.77531C3.0647 2.67092 2.92311 2.61228 2.77549 2.61228ZM7.82967 4.36009L4.70884 1.23555C4.67417 1.20116 4.63305 1.17395 4.58783 1.15548C4.54262 1.13701 4.49421 1.12765 4.44537 1.12794H1.1056C1.00719 1.12794 0.912799 1.16703 0.843207 1.23662C0.773615 1.30622 0.734519 1.4006 0.734519 1.49902V4.83879C0.734236 4.88763 0.743597 4.93604 0.762064 4.98125C0.780531 5.02646 0.807741 5.06759 0.842133 5.10226L3.96667 8.22309C4.17541 8.43156 4.45836 8.54866 4.75337 8.54866C5.04839 8.54866 5.33134 8.43156 5.54007 8.22309L7.82967 5.95204C8.03815 5.74331 8.15524 5.46036 8.15524 5.16534C8.15524 4.87033 8.03815 4.58738 7.82967 4.37864V4.36009ZM7.30644 5.40655L5.01313 7.69615C4.9436 7.76526 4.84955 7.80405 4.75152 7.80405C4.65348 7.80405 4.55943 7.76526 4.4899 7.69615L1.47669 4.68664V1.87011H4.29323L7.30644 4.88332C7.34083 4.91799 7.36804 4.95912 7.38651 5.00433C7.40498 5.04954 7.41434 5.09795 7.41405 5.14679C7.41364 5.24414 7.37499 5.33743 7.30644 5.40655Z" fill="#333333"/>
  </g>
  <defs>
    <clipPath id="clip0_1_3467">
      <rect width="8.90605" height="8.90605" fill="white" transform="translate(-0.00764465 0.385742)"/>
    </clipPath>
  </defs>
</svg>