<svg width="25" height="24" viewBox="0 0 25 24" fill="none" xmlns="http://www.w3.org/2000/svg">
<g clip-path="url(#clip0_1_5841)">
<path d="M12.5 0C7.56508 0 3.55029 4.0164 3.55029 8.95329C3.55029 16.3089 11.6092 23.4911 11.9524 23.7933C12.1088 23.9311 12.3044 24.0001 12.5 24.0001C12.6957 24.0001 12.8912 23.9312 13.0477 23.7933C13.3908 23.4911 21.4498 16.309 21.4498 8.95329C21.4498 4.0164 17.435 0 12.5 0ZM12.5 6.43984C13.8709 6.43984 14.9861 7.56735 14.9861 8.95329C14.9861 10.3392 13.8709 11.4667 12.5 11.4667C11.1292 11.4667 10.014 10.3392 10.014 8.95329C10.014 7.56735 11.1292 6.43984 12.5 6.43984Z" fill="#34A853"/>
</g>
<defs>
<clipPath id="clip0_1_5841">
<rect width="24" height="24" fill="white" transform="translate(0.5)"/>
</clipPath>
</defs>
</svg>
