<svg width="94" height="28" viewBox="0 0 94 28" fill="none" xmlns="http://www.w3.org/2000/svg">
<g id="Bundo Logo/FullLogo" clip-path="url(#clip0_1_2759)">
<path id="Vector" fill-rule="evenodd" clip-rule="evenodd" d="M12.4577 1.94183C13.7031 3.19476 14.432 4.95718 14.5151 7.11584C18.3144 8.69382 20.9862 12.4401 20.9862 16.8104C20.9862 22.6055 16.2884 27.3033 10.4933 27.3033H0.000421073V16.8104C0.000421073 16.4738 0.0162667 16.1409 0.0472526 15.8125L0.0456984 15.7285C-0.0257109 11.849 -0.0489039 7.94026 0.248065 6.05947C0.877462 2.07329 4.49326 -0.0554899 7.74984 0.00109975C9.42502 0.0302094 11.1479 0.62412 12.4577 1.94183ZM9.86922 4.51477C10.2431 4.89095 10.5909 5.46319 10.7621 6.32085C10.6728 6.31862 10.5832 6.31748 10.4933 6.31748C7.89672 6.31748 5.52039 7.26067 3.68826 8.8231C3.71964 7.89232 3.77235 7.14014 3.85311 6.62866C4.14025 4.8101 5.84829 3.61831 7.68641 3.65025C8.55858 3.66541 9.32578 3.96804 9.86922 4.51477ZM3.77158 19.2749C3.80629 20.8079 3.8402 22.3053 3.86024 23.6536H10.4933C14.2727 23.6536 17.3365 20.5897 17.3365 16.8104C17.3365 13.031 14.2727 9.9672 10.4933 9.9672C6.99688 9.9672 4.11292 12.5894 3.70066 15.9745C3.72153 17.0652 3.74676 18.1791 3.77157 19.2748L3.77158 19.2749V19.2749ZM72.9944 16.8104C72.9944 11.0153 77.692 6.31748 83.4876 6.31748C89.2825 6.31748 93.9801 11.0153 93.9801 16.8104C93.9801 22.6055 89.2825 27.3033 83.4876 27.3033C77.692 27.3033 72.9944 22.6055 72.9944 16.8104ZM83.4876 9.9672C79.7077 9.9672 76.6441 13.031 76.6441 16.8104C76.6441 20.5897 79.7077 23.6536 83.4876 23.6536C87.2669 23.6536 90.3304 20.5897 90.3304 16.8104C90.3304 13.031 87.2669 9.9672 83.4876 9.9672ZM62.6538 27.3728C67.4406 27.3728 71.3218 23.4919 71.3218 18.7047V10.0367V0.151477H67.6716V10.0367H62.6538C57.8664 10.0367 53.9855 13.9175 53.9855 18.7047C53.9855 23.4919 57.8664 27.3728 62.6538 27.3728ZM67.6722 18.7047C67.6722 21.4763 65.425 23.723 62.6538 23.723C59.882 23.723 57.6353 21.4763 57.6353 18.7047C57.6353 15.9332 59.882 13.6864 62.6538 13.6864H67.6722V18.7047ZM26.3086 20.1506V6.54021H22.6589V20.1506C22.6589 24.14 25.8929 27.374 29.8822 27.374C33.8716 27.374 37.1056 24.14 37.1056 20.1506V6.54021H33.4559V20.1506C33.4559 22.1242 31.8559 23.7242 29.8822 23.7242C27.9086 23.7242 26.3086 22.1242 26.3086 20.1506ZM49.5754 27.0698V13.4594C49.5754 11.4858 47.9755 9.8858 46.0018 9.8858C44.0281 9.8858 42.4281 11.4858 42.4281 13.4594V27.0698H38.7784V13.4594C38.7784 9.47006 42.0125 6.23608 46.0018 6.23608C49.9912 6.23608 53.2252 9.47006 53.2252 13.4594V27.0698H49.5754Z" fill="#34A853"/>
<path id="Vector_2" d="M8.82037 15.8156C8.82037 17.3274 10.0459 18.5529 11.5576 18.5529C13.0694 18.5529 14.2949 17.3274 14.2949 15.8156C14.2949 14.3039 13.0694 13.0784 11.5576 13.0784C10.0459 13.0784 8.82037 14.3039 8.82037 15.8156Z" fill="#FDE74C"/>
</g>
<defs>
<clipPath id="clip0_1_2759">
<rect width="94" height="27.374" fill="white"/>
</clipPath>
</defs>
</svg>
